<?xml version="1.0" encoding="UTF-8"?>
<svg id="Layer_1" data-name="Layer 1" xmlns="http://www.w3.org/2000/svg" xmlns:xlink="http://www.w3.org/1999/xlink" viewBox="0 0 224.33 57.63">
  <defs>
    <style>
      .cls-1 {
        fill: #4094ff;
      }

      .cls-1, .cls-2, .cls-3, .cls-4, .cls-5, .cls-6, .cls-7, .cls-8, .cls-9, .cls-10, .cls-11, .cls-12, .cls-13, .cls-14, .cls-15, .cls-16, .cls-17, .cls-18, .cls-19, .cls-20, .cls-21, .cls-22, .cls-23, .cls-24, .cls-25, .cls-26, .cls-27, .cls-28, .cls-29, .cls-30, .cls-31, .cls-32, .cls-33, .cls-34, .cls-35, .cls-36, .cls-37, .cls-38, .cls-39, .cls-40, .cls-41, .cls-42, .cls-43, .cls-44, .cls-45, .cls-46, .cls-47, .cls-48, .cls-49, .cls-50, .cls-51, .cls-52, .cls-53, .cls-54, .cls-55, .cls-56, .cls-57, .cls-58, .cls-59, .cls-60, .cls-61, .cls-62, .cls-63, .cls-64, .cls-65, .cls-66, .cls-67, .cls-68, .cls-69, .cls-70, .cls-71, .cls-72, .cls-73, .cls-74, .cls-75, .cls-76, .cls-77, .cls-78, .cls-79, .cls-80, .cls-81, .cls-82, .cls-83, .cls-84, .cls-85, .cls-86, .cls-87, .cls-88, .cls-89, .cls-90, .cls-91, .cls-92, .cls-93, .cls-94, .cls-95, .cls-96, .cls-97, .cls-98, .cls-99, .cls-100, .cls-101, .cls-102, .cls-103, .cls-104, .cls-105, .cls-106, .cls-107, .cls-108, .cls-109, .cls-110, .cls-111, .cls-112, .cls-113, .cls-114, .cls-115, .cls-116, .cls-117, .cls-118, .cls-119, .cls-120, .cls-121, .cls-122, .cls-123, .cls-124, .cls-125, .cls-126, .cls-127, .cls-128, .cls-129, .cls-130, .cls-131, .cls-132, .cls-133, .cls-134, .cls-135, .cls-136, .cls-137, .cls-138, .cls-139, .cls-140, .cls-141, .cls-142, .cls-143, .cls-144, .cls-145, .cls-146, .cls-147, .cls-148, .cls-149, .cls-150, .cls-151, .cls-152, .cls-153, .cls-154, .cls-155, .cls-156, .cls-157, .cls-158, .cls-159, .cls-160, .cls-161, .cls-162, .cls-163, .cls-164, .cls-165, .cls-166, .cls-167, .cls-168, .cls-169, .cls-170, .cls-171, .cls-172, .cls-173, .cls-174, .cls-175, .cls-176, .cls-177, .cls-178, .cls-179, .cls-180, .cls-181, .cls-182, .cls-183, .cls-184, .cls-185, .cls-186, .cls-187, .cls-188, .cls-189, .cls-190, .cls-191, .cls-192, .cls-193, .cls-194, .cls-195, .cls-196, .cls-197, .cls-198, .cls-199, .cls-200, .cls-201, .cls-202, .cls-203, .cls-204, .cls-205, .cls-206, .cls-207, .cls-208, .cls-209, .cls-210, .cls-211, .cls-212, .cls-213, .cls-214, .cls-215, .cls-216, .cls-217, .cls-218, .cls-219, .cls-220, .cls-221, .cls-222, .cls-223, .cls-224, .cls-225, .cls-226, .cls-227, .cls-228, .cls-229, .cls-230, .cls-231, .cls-232, .cls-233, .cls-234, .cls-235, .cls-236, .cls-237, .cls-238, .cls-239, .cls-240, .cls-241, .cls-242, .cls-243, .cls-244, .cls-245, .cls-246, .cls-247, .cls-248, .cls-249, .cls-250, .cls-251, .cls-252, .cls-253, .cls-254, .cls-255, .cls-256, .cls-257, .cls-258, .cls-259, .cls-260, .cls-261, .cls-262, .cls-263, .cls-264, .cls-265, .cls-266, .cls-267, .cls-268, .cls-269, .cls-270, .cls-271, .cls-272 {
        stroke-width: 0px;
      }

      .cls-2 {
        fill: #4193ff;
      }

      .cls-3 {
        fill: #ddf3ff;
      }

      .cls-4 {
        fill: #43bbff;
      }

      .cls-5 {
        fill: #3bb9ff;
      }

      .cls-6 {
        fill: #4e76ff;
      }

      .cls-7 {
        fill: #39a4ff;
      }

      .cls-8 {
        fill: #ace1ff;
      }

      .cls-9 {
        fill: #6ecbff;
      }

      .cls-10 {
        fill: #38b8ff;
      }

      .cls-11 {
        fill: #b8e5ff;
      }

      .cls-12 {
        fill: #7cd0ff;
      }

      .cls-13 {
        fill: #daf2ff;
      }

      .cls-14 {
        fill: #8fd7ff;
      }

      .cls-15 {
        fill: #3d9aff;
      }

      .cls-16 {
        fill: #4686ff;
      }

      .cls-17 {
        fill: #36aaff;
      }

      .cls-18 {
        fill: #d8f1ff;
      }

      .cls-19 {
        fill: #cdedff;
      }

      .cls-20 {
        fill: #c2e9ff;
      }

      .cls-21 {
        fill: #6acaff;
      }

      .cls-22 {
        fill: #95d9ff;
      }

      .cls-23 {
        fill: #5468ff;
      }

      .cls-24 {
        fill: #d0eeff;
      }

      .cls-25 {
        fill: #438cff;
      }

      .cls-26 {
        fill: #3e99ff;
      }

      .cls-27 {
        fill: #87d4ff;
      }

      .cls-28 {
        fill: #5070ff;
      }

      .cls-29 {
        fill: #5ac4ff;
      }

      .cls-30 {
        fill: #ade1ff;
      }

      .cls-31 {
        fill: #97daff;
      }

      .cls-32 {
        fill: #4981ff;
      }

      .cls-33 {
        fill: #67c8ff;
      }

      .cls-34 {
        fill: #39a3ff;
      }

      .cls-35 {
        fill: #44bcff;
      }

      .cls-36 {
        fill: #3ba0ff;
      }

      .cls-37 {
        fill: #4784ff;
      }

      .cls-38 {
        fill: #526dff;
      }

      .cls-39 {
        fill: #79cfff;
      }

      .cls-40 {
        fill: #50c0ff;
      }

      .cls-41 {
        fill: #71ccff;
      }

      .cls-273 {
        clip-path: url(#clippath);
      }

      .cls-42 {
        fill: none;
      }

      .cls-43 {
        fill: #b1e3ff;
      }

      .cls-44 {
        fill: #92d8ff;
      }

      .cls-45 {
        fill: #b5e4ff;
      }

      .cls-46 {
        fill: #9cdbff;
      }

      .cls-47 {
        fill: #b7e5ff;
      }

      .cls-48 {
        fill: #83d3ff;
      }

      .cls-49 {
        fill: #81d2ff;
      }

      .cls-50 {
        fill: #b4e4ff;
      }

      .cls-51 {
        fill: #33b6ff;
      }

      .cls-52 {
        fill: #9cf;
      }

      .cls-53 {
        fill: #d3efff;
      }

      .cls-54 {
        fill: #5dc5ff;
      }

      .cls-55 {
        fill: #37b7ff;
      }

      .cls-56 {
        fill: #d4efff;
      }

      .cls-57 {
        fill: #e6f6ff;
      }

      .cls-58 {
        fill: #d5f0ff;
      }

      .cls-59 {
        fill: #65c8ff;
      }

      .cls-60 {
        fill: #d2efff;
      }

      .cls-61 {
        fill: #80d5ff;
      }

      .cls-62 {
        fill: #536aff;
      }

      .cls-63 {
        fill: #448bff;
      }

      .cls-64 {
        fill: #9edcff;
      }

      .cls-65 {
        fill: #57c3ff;
      }

      .cls-66 {
        fill: #56c2ff;
      }

      .cls-67 {
        fill: #4bbeff;
      }

      .cls-68 {
        fill: #5bc4ff;
      }

      .cls-69 {
        fill: #9bdbff;
      }

      .cls-70 {
        fill: #448aff;
      }

      .cls-71 {
        fill: #b6e5ff;
      }

      .cls-72 {
        fill: #35adff;
      }

      .cls-73 {
        fill: #4687ff;
      }

      .cls-74 {
        fill: #77ceff;
      }

      .cls-75 {
        fill: #438dff;
      }

      .cls-76 {
        fill: #5cc5ff;
      }

      .cls-77 {
        fill: #bee8ff;
      }

      .cls-78 {
        fill: #84d3ff;
      }

      .cls-79 {
        fill: #4588ff;
      }

      .cls-80 {
        fill: #5469ff;
      }

      .cls-81 {
        fill: #34afff;
      }

      .cls-82 {
        fill: #4b7bff;
      }

      .cls-83 {
        fill: #516fff;
      }

      .cls-84 {
        fill: #6bcaff;
      }

      .cls-85 {
        fill: #def3ff;
      }

      .cls-86 {
        fill: #3cb9ff;
      }

      .cls-87 {
        fill: #4cbfff;
      }

      .cls-88 {
        fill: #d7f1ff;
      }

      .cls-89 {
        fill: #a3deff;
      }

      .cls-90 {
        fill: #52c1ff;
      }

      .cls-91 {
        fill: #e9f7ff;
      }

      .cls-92 {
        fill: #4882ff;
      }

      .cls-93 {
        fill: #bae6ff;
      }

      .cls-94 {
        fill: #88d4ff;
      }

      .cls-95 {
        fill: #59c3ff;
      }

      .cls-96 {
        fill: #afe2ff;
      }

      .cls-97 {
        fill: #39b8ff;
      }

      .cls-98 {
        fill: #ceedff;
      }

      .cls-99 {
        fill: #a4deff;
      }

      .cls-100 {
        fill: #3d9cff;
      }

      .cls-101 {
        fill: #e3f5ff;
      }

      .cls-102 {
        fill: #a2ddff;
      }

      .cls-103 {
        fill: #75ceff;
      }

      .cls-104 {
        fill: #abe1ff;
      }

      .cls-105 {
        fill: #93d8ff;
      }

      .cls-106 {
        fill: #5ec5ff;
      }

      .cls-107 {
        fill: #33b0ff;
      }

      .cls-108 {
        fill: #62c7ff;
      }

      .cls-109 {
        fill: #6fcbff;
      }

      .cls-274 {
        clip-path: url(#clippath-1);
      }

      .cls-275 {
        clip-path: url(#clippath-3);
      }

      .cls-276 {
        clip-path: url(#clippath-2);
      }

      .cls-110 {
        fill: #47bdff;
      }

      .cls-111 {
        fill: #4dbfff;
      }

      .cls-112 {
        fill: #99daff;
      }

      .cls-113 {
        fill: #55c2ff;
      }

      .cls-114 {
        fill: #dff3ff;
      }

      .cls-115 {
        fill: #4a7eff;
      }

      .cls-116 {
        fill: #b0e2ff;
      }

      .cls-117 {
        fill: #ebf8ff;
      }

      .cls-118 {
        fill: #9ddcff;
      }

      .cls-119 {
        fill: #a8e0ff;
      }

      .cls-120 {
        fill: #8cd6ff;
      }

      .cls-121 {
        fill: #8ad5ff;
      }

      .cls-122 {
        fill: #3aa1ff;
      }

      .cls-123 {
        fill: #4e75ff;
      }

      .cls-124 {
        fill: #33b1ff;
      }

      .cls-125 {
        fill: #51c1ff;
      }

      .cls-126 {
        fill: #4c79ff;
      }

      .cls-127 {
        fill: #56f;
      }

      .cls-128 {
        fill: #c4eaff;
      }

      .cls-129 {
        fill: #7bd0ff;
      }

      .cls-130 {
        fill: #aee2ff;
      }

      .cls-131 {
        fill: #d6f0ff;
      }

      .cls-132 {
        fill: #4d78ff;
      }

      .cls-133 {
        fill: #a7dfff;
      }

      .cls-134 {
        fill: #e4f5ff;
      }

      .cls-135 {
        fill: #438fff;
      }

      .cls-136 {
        fill: #3f97ff;
      }

      .cls-137 {
        fill: #a9e0ff;
      }

      .cls-138 {
        fill: #64c7ff;
      }

      .cls-139 {
        fill: #caecff;
      }

      .cls-140 {
        fill: #38a6ff;
      }

      .cls-141 {
        fill: #6ed6ff;
      }

      .cls-142 {
        fill: #34aeff;
      }

      .cls-143 {
        fill: #37a7ff;
      }

      .cls-144 {
        fill: #78cfff;
      }

      .cls-145 {
        fill: #cfeeff;
      }

      .cls-146 {
        fill: #31b5ff;
      }

      .cls-147 {
        fill: #86d4ff;
      }

      .cls-148 {
        fill: #e0f4ff;
      }

      .cls-149 {
        fill: #36abff;
      }

      .cls-150 {
        fill: #e5f6ff;
      }

      .cls-151 {
        fill: #4f72ff;
      }

      .cls-152 {
        fill: #58c3ff;
      }

      .cls-153 {
        fill: #91d8ff;
      }

      .cls-154 {
        fill: #4b7cff;
      }

      .cls-155 {
        fill: #3f96ff;
      }

      .cls-156 {
        fill: #4a7dff;
      }

      .cls-157 {
        fill: #c5eaff;
      }

      .cls-158 {
        fill: #5071ff;
      }

      .cls-159 {
        fill: #3c9eff;
      }

      .cls-160 {
        fill: #72ccff;
      }

      .cls-161 {
        fill: #38a5ff;
      }

      .cls-162 {
        fill: #6dcbff;
      }

      .cls-163 {
        fill: #e7f6ff;
      }

      .cls-164 {
        fill: #b2e3ff;
      }

      .cls-165 {
        fill: #41bbff;
      }

      .cls-166 {
        fill: #d9f1ff;
      }

      .cls-167 {
        fill: #53c1ff;
      }

      .cls-168 {
        fill: #83a6ff;
      }

      .cls-169 {
        fill: #96d9ff;
      }

      .cls-170 {
        fill: #b9e6ff;
      }

      .cls-171 {
        fill: #9fdcff;
      }

      .cls-172 {
        fill: #eaf7ff;
      }

      .cls-173 {
        fill: #35b6ff;
      }

      .cls-174 {
        fill: #54c2ff;
      }

      .cls-175 {
        fill: #32b2ff;
      }

      .cls-176 {
        fill: #74cdff;
      }

      .cls-177 {
        fill: #36b7ff;
      }

      .cls-178 {
        fill: #60c6ff;
      }

      .cls-179 {
        fill: #89d5ff;
      }

      .cls-180 {
        fill: #cbecff;
      }

      .cls-181 {
        fill: #4192ff;
      }

      .cls-182 {
        fill: #85d3ff;
      }

      .cls-183 {
        fill: #3e98ff;
      }

      .cls-184 {
        fill: #32b3ff;
      }

      .cls-185 {
        fill: #6ccaff;
      }

      .cls-186 {
        fill: #35acff;
      }

      .cls-187 {
        fill: #e1f4ff;
      }

      .cls-188 {
        fill: #4c7aff;
      }

      .cls-189 {
        fill: #ecf8ff;
      }

      .cls-190 {
        fill: #4f73ff;
      }

      .cls-191 {
        fill: #46bdff;
      }

      .cls-192 {
        fill: #497fff;
      }

      .cls-193 {
        fill: #9adbff;
      }

      .cls-194 {
        fill: #69c9ff;
      }

      .cls-195 {
        fill: #80d2ff;
      }

      .cls-196 {
        fill: #516eff;
      }

      .cls-197 {
        fill: #3ebaff;
      }

      .cls-198 {
        fill: #76ceff;
      }

      .cls-199 {
        fill: #3d9bff;
      }

      .cls-200 {
        fill: #c1e9ff;
      }

      .cls-201 {
        fill: #90d7ff;
      }

      .cls-202 {
        fill: #e2f5ff;
      }

      .cls-203 {
        fill: #73cdff;
      }

      .cls-204 {
        fill: #7dd0ff;
      }

      .cls-205 {
        fill: #63c7ff;
      }

      .cls-206 {
        fill: #dcf2ff;
      }

      .cls-207 {
        fill: #dbf2ff;
      }

      .cls-208 {
        fill: #bfe8ff;
      }

      .cls-209 {
        fill: #4291ff;
      }

      .cls-210 {
        fill: #61c6ff;
      }

      .cls-211 {
        fill: #7fd1ff;
      }

      .cls-212 {
        fill: #c0e8ff;
      }

      .cls-213 {
        fill: #a1ddff;
      }

      .cls-214 {
        fill: #8bd5ff;
      }

      .cls-215 {
        fill: #5fc6ff;
      }

      .cls-216 {
        fill: #45bcff;
      }

      .cls-217 {
        fill: #34b6ff;
      }

      .cls-218 {
        fill: #48bdff;
      }

      .cls-219 {
        fill: #37a9ff;
      }

      .cls-220 {
        fill: #3c9dff;
      }

      .cls-221 {
        fill: #bce7ff;
      }

      .cls-222 {
        fill: #a5dfff;
      }

      .cls-223 {
        fill: #d1eeff;
      }

      .cls-224 {
        fill: #49beff;
      }

      .cls-225 {
        fill: #4883ff;
      }

      .cls-226 {
        fill: #4d77ff;
      }

      .cls-227 {
        fill: #536bff;
      }

      .cls-228 {
        fill: #4095ff;
      }

      .cls-229 {
        fill: #5567ff;
      }

      .cls-230 {
        fill: #82d2ff;
      }

      .cls-231 {
        fill: #3aa2ff;
      }

      .cls-232 {
        fill: #4589ff;
      }

      .cls-233 {
        fill: #7acfff;
      }

      .cls-234 {
        fill: #c9ecff;
      }

      .cls-235 {
        fill: #3fbaff;
      }

      .cls-236 {
        fill: #c8ebff;
      }

      .cls-237 {
        fill: #7ed1ff;
      }

      .cls-238 {
        fill: #c3e9ff;
      }

      .cls-239 {
        fill: #37a8ff;
      }

      .cls-240 {
        fill: #ccedff;
      }

      .cls-241 {
        fill: #b3e4ff;
      }

      .cls-242 {
        fill: #32b5ff;
      }

      .cls-243 {
        fill: #a0ddff;
      }

      .cls-244 {
        fill: #4f74ff;
      }

      .cls-245 {
        fill: #fff;
      }

      .cls-246 {
        fill: #e8f7ff;
      }

      .cls-247 {
        fill: #c7ebff;
      }

      .cls-248 {
        fill: #3b9fff;
      }

      .cls-249 {
        fill: #526cff;
      }

      .cls-250 {
        fill: #3ab8ff;
      }

      .cls-251 {
        fill: #42bbff;
      }

      .cls-252 {
        fill: #70ccff;
      }

      .cls-253 {
        fill: #bde7ff;
      }

      .cls-254 {
        fill: #94d9ff;
      }

      .cls-255 {
        fill: #4ebfff;
      }

      .cls-256 {
        fill: #4fc0ff;
      }

      .cls-257 {
        fill: #40baff;
      }

      .cls-258 {
        fill: #4290ff;
      }

      .cls-259 {
        fill: #c6eaff;
      }

      .cls-260 {
        fill: #3db9ff;
      }

      .cls-261 {
        fill: #31b4ff;
      }

      .cls-262 {
        fill: #8ed7ff;
      }

      .cls-263 {
        fill: #edf9ff;
      }

      .cls-264 {
        fill: #4abeff;
      }

      .cls-265 {
        fill: #66c8ff;
      }

      .cls-266 {
        fill: #68c9ff;
      }

      .cls-267 {
        fill: #4785ff;
      }

      .cls-268 {
        fill: #a6dfff;
      }

      .cls-269 {
        fill: #8dd6ff;
      }

      .cls-270 {
        fill: #4980ff;
      }

      .cls-271 {
        fill: #aae0ff;
      }

      .cls-272 {
        fill: #bbe6ff;
      }
    </style>
    <clipPath id="clippath">
      <path class="cls-42" d="M57.63,9.66v38.3c0,5.34-4.32,9.67-9.66,9.67H13.08v-15.59c0-3.3,2.68-5.98,5.98-5.98h20.72c7.11,0,12.9-5.79,12.9-12.9s-5.79-12.91-12.9-12.91h-20.72c-3.3,0-5.98-2.68-5.98-5.97V.34c0-.12,0-.23-.02-.34h34.91c5.34,0,9.66,4.32,9.66,9.66Z"/>
    </clipPath>
    <clipPath id="clippath-1">
      <path class="cls-42" d="M57.63,9.66v38.3c0,5.34-4.32,9.67-9.66,9.67H9.67c-1.24,0-2.42-.23-3.51-.66-3.6-1.4-6.16-4.91-6.16-9.01V9.66C0,5.56,2.56,2.06,6.16.66,7.25.23,8.43,0,9.67,0h38.3C53.31,0,57.63,4.32,57.63,9.66Z"/>
    </clipPath>
    <clipPath id="clippath-2">
      <path class="cls-42" d="M45.75,23.16c0,3.29-2.68,5.97-5.97,5.97h-20.72c-7.12,0-12.9,5.79-12.9,12.91v14.93C2.56,55.57,0,52.06,0,47.96V9.66C0,5.56,2.56,2.06,6.16.66v3.62c0,7.11,5.78,12.9,12.9,12.9h20.72c3.29,0,5.97,2.68,5.97,5.98Z"/>
    </clipPath>
    <clipPath id="clippath-3">
      <path class="cls-42" d="M57.63,9.66v38.3c0,5.34-4.32,9.67-9.66,9.67H9.67c-1.24,0-2.42-.23-3.51-.66-3.6-1.4-6.16-4.91-6.16-9.01V9.66C0,5.56,2.56,2.06,6.16.66,7.25.23,8.43,0,9.67,0h38.3C53.31,0,57.63,4.32,57.63,9.66Z"/>
    </clipPath>
  </defs>
  <g>
    <path class="cls-245" d="M72.37,41.14v-24.3h10c2.15,0,4,.34,5.54,1.02,1.54.68,2.72,1.67,3.56,2.97.83,1.3,1.25,2.85,1.25,4.65s-.42,3.31-1.25,4.6c-.83,1.28-2.02,2.28-3.56,2.99-1.54.71-3.38,1.06-5.54,1.06h-7.46l1.98-2.08v9.09h-4.51ZM76.88,32.54l-1.98-2.22h7.25c1.99,0,3.49-.42,4.5-1.27,1.01-.84,1.51-2.03,1.51-3.56s-.5-2.71-1.51-3.56c-1.01-.84-2.51-1.27-4.5-1.27h-7.25l1.98-2.22v14.09Z"/>
    <path class="cls-245" d="M102.74,41.39c-1.39,0-2.6-.24-3.64-.71-1.04-.47-1.85-1.13-2.41-1.98-.57-.84-.85-1.8-.85-2.86s.25-1.98.75-2.81c.5-.83,1.31-1.49,2.45-1.98,1.13-.49,2.64-.73,4.51-.73h5.38v2.88h-5.07c-1.46,0-2.45.24-2.97.71-.52.47-.78,1.07-.78,1.79,0,.76.31,1.38.94,1.84.62.46,1.49.69,2.6.69s2.02-.24,2.86-.73,1.46-1.2,1.86-2.15l.69,2.6c-.42,1.09-1.16,1.93-2.22,2.53-1.06.6-2.43.9-4.1.9ZM108.57,41.14v-3.78l-.21-.76v-6.56c0-1.27-.39-2.26-1.16-2.97-.78-.71-1.95-1.06-3.52-1.06-1.02,0-2.02.16-3.02.49-1,.32-1.85.78-2.57,1.35l-1.7-3.16c1.02-.76,2.21-1.34,3.58-1.74,1.37-.39,2.79-.59,4.27-.59,2.71,0,4.79.65,6.25,1.94,1.46,1.3,2.19,3.29,2.19,5.97v10.86h-4.1Z"/>
    <path class="cls-245" d="M119.78,48.12c-.93,0-1.84-.15-2.74-.45-.9-.3-1.64-.72-2.22-1.25l1.7-3.16c.44.37.93.67,1.48.9.54.23,1.12.35,1.72.35.79,0,1.42-.2,1.91-.59.49-.39.94-1.06,1.35-2.01l1.04-2.36.42-.56,6.98-16.38h4.17l-8.68,20.06c-.58,1.36-1.22,2.45-1.93,3.25-.71.8-1.49,1.37-2.36,1.7s-1.81.5-2.83.5ZM123.57,41.8l-8.36-19.19h4.48l6.84,16-2.95,3.19Z"/>
  </g>
  <rect class="cls-52" x="161.08" y="15.39" width="5.42" height="25.78"/>
  <polygon class="cls-168" points="139.25 16.85 157.64 16.85 157.64 21.36 144.92 21.36 144.92 27.8 156.15 27.8 156.15 32.32 144.92 32.32 144.92 41.17 139.25 41.17 139.25 16.85"/>
  <path class="cls-61" d="M180.4,41.46c-1.97,0-3.72-.42-5.27-1.25-1.54-.83-2.75-1.98-3.63-3.42-.88-1.45-1.32-3.1-1.32-4.95s.44-3.54,1.32-4.99c.88-1.45,2.09-2.58,3.63-3.41,1.54-.82,3.3-1.23,5.27-1.23s3.76.41,5.32,1.23c1.55.82,2.77,1.96,3.65,3.41.88,1.45,1.32,3.11,1.32,4.99s-.44,3.53-1.32,4.97c-.88,1.44-2.1,2.57-3.65,3.41-1.55.83-3.32,1.25-5.32,1.25ZM180.4,37.01c.93,0,1.74-.2,2.45-.61.71-.4,1.27-1,1.7-1.79.43-.79.64-1.71.64-2.78s-.22-2.02-.64-2.78c-.43-.76-1-1.35-1.7-1.76-.71-.4-1.51-.61-2.42-.61s-1.71.2-2.43.61c-.72.41-1.29.99-1.72,1.76-.43.77-.64,1.69-.64,2.78s.21,1.99.64,2.78c.43.79,1,1.38,1.72,1.79.72.41,1.52.61,2.4.61Z"/>
  <polygon class="cls-141" points="224.33 22.48 217.56 41.17 212.34 41.17 208.12 29.52 203.83 41.17 198.57 41.17 191.83 22.48 196.95 22.48 201.34 35.1 205.91 22.48 210.53 22.48 214.99 35.22 219.53 22.48 224.33 22.48"/>
  <g class="cls-273">
    <g class="cls-274">
      <polygon class="cls-263" points="0 57.44 .18 57.63 0 57.63 0 57.44"/>
      <polygon class="cls-189" points="0 57.11 .49 57.63 .18 57.63 0 57.44 0 57.11"/>
      <polygon class="cls-117" points="0 56.78 .81 57.63 .49 57.63 0 57.11 0 56.78"/>
      <polygon class="cls-172" points="0 56.45 1.12 57.63 .81 57.63 0 56.78 0 56.45"/>
      <polygon class="cls-91" points="0 56.12 1.43 57.63 1.12 57.63 0 56.45 0 56.12"/>
      <polygon class="cls-246" points="0 55.79 1.75 57.63 1.43 57.63 0 56.12 0 55.79"/>
      <polygon class="cls-163" points="0 55.46 2.06 57.63 1.75 57.63 0 55.79 0 55.46"/>
      <polygon class="cls-57" points="0 55.13 2.37 57.63 2.06 57.63 0 55.46 0 55.13"/>
      <polygon class="cls-150" points="0 54.8 2.68 57.63 2.37 57.63 0 55.13 0 54.8"/>
      <polygon class="cls-134" points="0 54.47 3 57.63 2.68 57.63 0 54.8 0 54.47"/>
      <polygon class="cls-101" points="0 54.14 3.31 57.63 3 57.63 0 54.47 0 54.14"/>
      <polygon class="cls-202" points="0 53.81 3.62 57.63 3.31 57.63 0 54.14 0 53.81"/>
      <polygon class="cls-187" points="0 53.48 3.94 57.63 3.62 57.63 0 53.81 0 53.48"/>
      <polygon class="cls-148" points="0 53.15 4.25 57.63 3.94 57.63 0 53.48 0 53.15"/>
      <polygon class="cls-114" points="0 52.82 4.56 57.63 4.25 57.63 0 53.15 0 52.82"/>
      <polygon class="cls-85" points="0 52.49 4.88 57.63 4.56 57.63 0 52.82 0 52.49"/>
      <polygon class="cls-3" points="0 52.16 5.19 57.63 4.88 57.63 0 52.49 0 52.16"/>
      <polygon class="cls-206" points="0 51.83 5.5 57.63 5.19 57.63 0 52.16 0 51.83"/>
      <polygon class="cls-207" points="0 51.5 5.82 57.63 5.5 57.63 0 51.83 0 51.5"/>
      <polygon class="cls-13" points="0 51.17 6.13 57.63 5.82 57.63 0 51.5 0 51.17"/>
      <polygon class="cls-166" points="0 50.84 6.44 57.63 6.13 57.63 0 51.17 0 50.84"/>
      <polygon class="cls-18" points="0 50.51 6.76 57.63 6.44 57.63 0 50.84 0 50.51"/>
      <polygon class="cls-88" points="0 50.18 7.07 57.63 6.76 57.63 0 50.51 0 50.18"/>
      <polygon class="cls-131" points="0 49.85 7.38 57.63 7.07 57.63 0 50.18 0 49.85"/>
      <polygon class="cls-58" points="0 49.52 7.69 57.63 7.38 57.63 0 49.85 0 49.52"/>
      <polygon class="cls-56" points="0 49.19 8.01 57.63 7.69 57.63 0 49.52 0 49.19"/>
      <polygon class="cls-53" points="0 48.86 8.32 57.63 8.01 57.63 0 49.19 0 48.86"/>
      <polygon class="cls-60" points="0 48.53 8.63 57.63 8.32 57.63 0 48.86 0 48.53"/>
      <polygon class="cls-223" points="0 48.2 8.95 57.63 8.63 57.63 0 48.53 0 48.2"/>
      <polygon class="cls-24" points="0 47.87 9.26 57.63 8.95 57.63 0 48.2 0 47.87"/>
      <polygon class="cls-145" points="0 47.54 9.57 57.63 9.26 57.63 0 47.87 0 47.54"/>
      <polygon class="cls-98" points="0 47.21 9.89 57.63 9.57 57.63 0 47.54 0 47.21"/>
      <polygon class="cls-19" points="0 46.88 10.2 57.63 9.89 57.63 0 47.21 0 46.88"/>
      <polygon class="cls-240" points="0 46.55 10.51 57.63 10.2 57.63 0 46.88 0 46.55"/>
      <polygon class="cls-180" points="0 46.22 10.83 57.63 10.51 57.63 0 46.55 0 46.22"/>
      <polygon class="cls-139" points="0 45.89 11.14 57.63 10.83 57.63 0 46.22 0 45.89"/>
      <polygon class="cls-234" points="0 45.56 11.45 57.63 11.14 57.63 0 45.89 0 45.56"/>
      <polygon class="cls-236" points="0 45.23 11.77 57.63 11.45 57.63 0 45.56 0 45.23"/>
      <polygon class="cls-247" points="0 44.9 12.08 57.63 11.77 57.63 0 45.23 0 44.9"/>
      <polygon class="cls-259" points="0 44.57 12.39 57.63 12.08 57.63 0 44.9 0 44.57"/>
      <polygon class="cls-157" points="0 44.24 12.7 57.63 12.39 57.63 0 44.57 0 44.24"/>
      <polygon class="cls-128" points="0 43.91 13.02 57.63 12.7 57.63 0 44.24 0 43.91"/>
      <polygon class="cls-238" points="0 43.58 13.33 57.63 13.02 57.63 0 43.91 0 43.58"/>
      <polygon class="cls-20" points="0 43.25 13.64 57.63 13.33 57.63 0 43.58 0 43.25"/>
      <polygon class="cls-200" points="0 42.92 13.96 57.63 13.64 57.63 0 43.25 0 42.92"/>
      <polygon class="cls-212" points="0 42.58 14.27 57.63 13.96 57.63 0 42.92 0 42.58"/>
      <polygon class="cls-208" points="0 42.25 14.58 57.63 14.27 57.63 0 42.58 0 42.25"/>
      <polygon class="cls-77" points="0 41.92 14.9 57.63 14.58 57.63 0 42.25 0 41.92"/>
      <polygon class="cls-253" points="0 41.59 15.21 57.63 14.9 57.63 0 41.92 0 41.59"/>
      <polygon class="cls-221" points="0 41.26 15.52 57.63 15.21 57.63 0 41.59 0 41.26"/>
      <polygon class="cls-272" points="0 40.93 15.84 57.63 15.52 57.63 0 41.26 0 40.93"/>
      <polygon class="cls-93" points="0 40.6 16.15 57.63 15.84 57.63 0 40.93 0 40.6"/>
      <polygon class="cls-170" points="0 40.27 16.46 57.63 16.15 57.63 0 40.6 0 40.27"/>
      <polygon class="cls-11" points="0 39.94 16.77 57.63 16.46 57.63 0 40.27 0 39.94"/>
      <polygon class="cls-47" points="0 39.61 17.09 57.63 16.77 57.63 0 39.94 0 39.61"/>
      <polygon class="cls-71" points="0 39.28 17.4 57.63 17.09 57.63 0 39.61 0 39.28"/>
      <polygon class="cls-45" points="0 38.95 17.71 57.63 17.4 57.63 0 39.28 0 38.95"/>
      <polygon class="cls-50" points="0 38.62 18.03 57.63 17.71 57.63 0 38.95 0 38.62"/>
      <polygon class="cls-241" points="0 38.29 18.34 57.63 18.03 57.63 0 38.62 0 38.29"/>
      <polygon class="cls-164" points="0 37.96 18.65 57.63 18.34 57.63 0 38.29 0 37.96"/>
      <polygon class="cls-43" points="0 37.63 18.97 57.63 18.65 57.63 0 37.96 0 37.63"/>
      <polygon class="cls-116" points="0 37.3 19.28 57.63 18.97 57.63 0 37.63 0 37.3"/>
      <polygon class="cls-96" points="0 36.97 19.59 57.63 19.28 57.63 0 37.3 0 36.97"/>
      <polygon class="cls-130" points="0 36.64 19.91 57.63 19.59 57.63 0 36.97 0 36.64"/>
      <polygon class="cls-30" points="0 36.31 20.22 57.63 19.91 57.63 0 36.64 0 36.31"/>
      <polygon class="cls-8" points="0 35.98 20.53 57.63 20.22 57.63 0 36.31 0 35.98"/>
      <polygon class="cls-104" points="0 35.65 20.85 57.63 20.53 57.63 0 35.98 0 35.65"/>
      <polygon class="cls-271" points="0 35.32 21.16 57.63 20.85 57.63 0 35.65 0 35.32"/>
      <polygon class="cls-137" points="0 34.99 21.47 57.63 21.16 57.63 0 35.32 0 34.99"/>
      <polygon class="cls-119" points="0 34.66 21.78 57.63 21.47 57.63 0 34.99 0 34.66"/>
      <polygon class="cls-133" points="0 34.33 22.1 57.63 21.78 57.63 0 34.66 0 34.33"/>
      <polygon class="cls-268" points="0 34 22.41 57.63 22.1 57.63 0 34.33 0 34"/>
      <polygon class="cls-222" points="0 33.67 22.72 57.63 22.41 57.63 0 34 0 33.67"/>
      <polygon class="cls-99" points="0 33.34 23.04 57.63 22.72 57.63 0 33.67 0 33.34"/>
      <polygon class="cls-89" points="0 33.01 23.35 57.63 23.04 57.63 0 33.34 0 33.01"/>
      <polygon class="cls-102" points="0 32.68 23.66 57.63 23.35 57.63 0 33.01 0 32.68"/>
      <polygon class="cls-213" points="0 32.35 23.98 57.63 23.66 57.63 0 32.68 0 32.35"/>
      <polygon class="cls-243" points="0 32.02 24.29 57.63 23.98 57.63 0 32.35 0 32.02"/>
      <polygon class="cls-171" points="0 31.69 24.6 57.63 24.29 57.63 0 32.02 0 31.69"/>
      <polygon class="cls-64" points="0 31.36 24.92 57.63 24.6 57.63 0 31.69 0 31.36"/>
      <polygon class="cls-118" points="0 31.03 25.23 57.63 24.92 57.63 0 31.36 0 31.03"/>
      <polygon class="cls-46" points="0 30.7 25.54 57.63 25.23 57.63 0 31.03 0 30.7"/>
      <polygon class="cls-69" points="0 30.37 25.86 57.63 25.54 57.63 0 30.7 0 30.37"/>
      <polygon class="cls-193" points="0 30.04 26.17 57.63 25.86 57.63 0 30.37 0 30.04"/>
      <polygon class="cls-112" points="0 29.71 26.48 57.63 26.17 57.63 0 30.04 0 29.71"/>
      <polygon class="cls-31" points="0 29.38 26.79 57.63 26.48 57.63 0 29.71 0 29.38"/>
      <polygon class="cls-169" points="0 29.05 27.11 57.63 26.79 57.63 0 29.38 0 29.05"/>
      <polygon class="cls-22" points="0 28.72 27.42 57.63 27.11 57.63 0 29.05 0 28.72"/>
      <polygon class="cls-254" points="0 28.39 27.73 57.63 27.42 57.63 0 28.72 0 28.39"/>
      <polygon class="cls-105" points="0 28.06 28.05 57.63 27.73 57.63 0 28.39 0 28.06"/>
      <polygon class="cls-44" points="0 27.73 28.36 57.63 28.05 57.63 0 28.06 0 27.73"/>
      <polygon class="cls-153" points="0 27.4 28.67 57.63 28.36 57.63 0 27.73 0 27.4"/>
      <polygon class="cls-201" points="0 27.07 28.99 57.63 28.67 57.63 0 27.4 0 27.07"/>
      <polygon class="cls-14" points="0 26.74 29.3 57.63 28.99 57.63 0 27.07 0 26.74"/>
      <polygon class="cls-262" points="0 26.41 29.61 57.63 29.3 57.63 0 26.74 0 26.41"/>
      <polygon class="cls-269" points="0 26.08 29.93 57.63 29.61 57.63 0 26.41 0 26.08"/>
      <polygon class="cls-120" points="0 25.75 30.24 57.63 29.93 57.63 0 26.08 0 25.75"/>
      <polygon class="cls-214" points="0 25.42 30.55 57.63 30.24 57.63 0 25.75 0 25.42"/>
      <polygon class="cls-121" points="0 25.09 30.86 57.63 30.55 57.63 0 25.42 0 25.09"/>
      <polygon class="cls-179" points="0 24.76 31.18 57.63 30.86 57.63 0 25.09 0 24.76"/>
      <polygon class="cls-94" points="0 24.43 31.49 57.63 31.18 57.63 0 24.76 0 24.43"/>
      <polygon class="cls-27" points="0 24.1 31.8 57.63 31.49 57.63 0 24.43 0 24.1"/>
      <polygon class="cls-147" points="0 23.77 32.12 57.63 31.8 57.63 0 24.1 0 23.77"/>
      <polygon class="cls-182" points="0 23.44 32.43 57.63 32.12 57.63 0 23.77 0 23.44"/>
      <polygon class="cls-78" points="0 23.11 32.74 57.63 32.43 57.63 0 23.44 0 23.11"/>
      <polygon class="cls-48" points="0 22.78 33.06 57.63 32.74 57.63 0 23.11 0 22.78"/>
      <polygon class="cls-230" points="0 22.45 33.37 57.63 33.06 57.63 0 22.78 0 22.45"/>
      <polygon class="cls-49" points="0 22.12 33.68 57.63 33.37 57.63 0 22.45 0 22.12"/>
      <polygon class="cls-195" points="0 21.79 34 57.63 33.68 57.63 0 22.12 0 21.79"/>
      <polygon class="cls-211" points="0 21.46 34.31 57.63 34 57.63 0 21.79 0 21.46"/>
      <polygon class="cls-237" points="0 21.13 34.62 57.63 34.31 57.63 0 21.46 0 21.13"/>
      <polygon class="cls-204" points="0 20.8 34.94 57.63 34.62 57.63 0 21.13 0 20.8"/>
      <polygon class="cls-12" points="0 20.47 35.25 57.63 34.94 57.63 0 20.8 0 20.47"/>
      <polygon class="cls-129" points="0 20.14 35.56 57.63 35.25 57.63 0 20.47 0 20.14"/>
      <polygon class="cls-233" points="0 19.81 35.87 57.63 35.56 57.63 0 20.14 0 19.81"/>
      <polygon class="cls-39" points="0 19.48 36.19 57.63 35.87 57.63 0 19.81 0 19.48"/>
      <polygon class="cls-144" points="0 19.15 36.5 57.63 36.19 57.63 0 19.48 0 19.15"/>
      <polygon class="cls-74" points="0 18.82 36.81 57.63 36.5 57.63 0 19.15 0 18.82"/>
      <polygon class="cls-198" points="0 18.49 37.13 57.63 36.81 57.63 0 18.82 0 18.49"/>
      <polygon class="cls-103" points="0 18.16 37.44 57.63 37.13 57.63 0 18.49 0 18.16"/>
      <polygon class="cls-176" points="0 17.83 37.75 57.63 37.44 57.63 0 18.16 0 17.83"/>
      <polygon class="cls-203" points="0 17.5 38.07 57.63 37.75 57.63 0 17.83 0 17.5"/>
      <polygon class="cls-160" points="0 17.16 38.38 57.63 38.07 57.63 0 17.5 0 17.16"/>
      <polygon class="cls-41" points="0 16.83 38.69 57.63 38.38 57.63 0 17.16 0 16.83"/>
      <polygon class="cls-252" points="0 16.5 39.01 57.63 38.69 57.63 0 16.83 0 16.5"/>
      <polygon class="cls-109" points="0 16.17 39.32 57.63 39.01 57.63 0 16.5 0 16.17"/>
      <polygon class="cls-9" points="0 15.84 39.63 57.63 39.32 57.63 0 16.17 0 15.84"/>
      <polygon class="cls-162" points="0 15.51 39.95 57.63 39.63 57.63 0 15.84 0 15.51"/>
      <polygon class="cls-185" points="0 15.18 40.26 57.63 39.95 57.63 0 15.51 0 15.18"/>
      <polygon class="cls-84" points="0 14.85 40.57 57.63 40.26 57.63 0 15.18 0 14.85"/>
      <polygon class="cls-21" points="0 14.52 40.88 57.63 40.57 57.63 0 14.85 0 14.52"/>
      <polygon class="cls-194" points="0 14.19 41.2 57.63 40.88 57.63 0 14.52 0 14.19"/>
      <polygon class="cls-266" points="0 13.86 41.51 57.63 41.2 57.63 0 14.19 0 13.86"/>
      <polygon class="cls-33" points="0 13.53 41.82 57.63 41.51 57.63 0 13.86 0 13.53"/>
      <polygon class="cls-265" points="0 13.2 42.14 57.63 41.82 57.63 0 13.53 0 13.2"/>
      <polygon class="cls-59" points="0 12.87 42.45 57.63 42.14 57.63 0 13.2 0 12.87"/>
      <polygon class="cls-138" points="0 12.54 42.76 57.63 42.45 57.63 0 12.87 0 12.54"/>
      <polygon class="cls-205" points="0 12.21 43.08 57.63 42.76 57.63 0 12.54 0 12.21"/>
      <polygon class="cls-108" points="0 11.88 43.39 57.63 43.08 57.63 0 12.21 0 11.88"/>
      <polygon class="cls-210" points="0 11.55 43.7 57.63 43.39 57.63 0 11.88 0 11.55"/>
      <polygon class="cls-178" points="0 11.22 44.02 57.63 43.7 57.63 0 11.55 0 11.22"/>
      <polygon class="cls-215" points="0 10.89 44.33 57.63 44.02 57.63 0 11.22 0 10.89"/>
      <polygon class="cls-106" points="0 10.56 44.64 57.63 44.33 57.63 0 10.89 0 10.56"/>
      <polygon class="cls-54" points="0 10.23 44.95 57.63 44.64 57.63 0 10.56 0 10.23"/>
      <polygon class="cls-76" points="0 9.9 45.27 57.63 44.95 57.63 0 10.23 0 9.9"/>
      <polygon class="cls-68" points="0 9.57 45.58 57.63 45.27 57.63 0 9.9 0 9.57"/>
      <polygon class="cls-29" points="0 9.24 45.89 57.63 45.58 57.63 0 9.57 0 9.24"/>
      <polygon class="cls-95" points="0 8.91 46.21 57.63 45.89 57.63 0 9.24 0 8.91"/>
      <polygon class="cls-152" points="0 8.58 46.52 57.63 46.21 57.63 0 8.91 0 8.58"/>
      <polygon class="cls-65" points="0 8.25 46.83 57.63 46.52 57.63 0 8.58 0 8.25"/>
      <polygon class="cls-66" points="0 7.92 47.15 57.63 46.83 57.63 0 8.25 0 7.92"/>
      <polygon class="cls-113" points="0 7.59 47.46 57.63 47.15 57.63 0 7.92 0 7.59"/>
      <polygon class="cls-174" points="0 7.26 47.77 57.63 47.46 57.63 0 7.59 0 7.26"/>
      <polygon class="cls-167" points="0 6.93 48.09 57.63 47.77 57.63 0 7.26 0 6.93"/>
      <polygon class="cls-90" points="0 6.6 48.4 57.63 48.09 57.63 0 6.93 0 6.6"/>
      <polygon class="cls-125" points="0 6.27 48.71 57.63 48.4 57.63 0 6.6 0 6.27"/>
      <polygon class="cls-40" points="0 5.94 49.03 57.63 48.71 57.63 0 6.27 0 5.94"/>
      <polygon class="cls-256" points="0 5.61 49.34 57.63 49.03 57.63 0 5.94 0 5.61"/>
      <polygon class="cls-255" points="0 5.28 49.65 57.63 49.34 57.63 0 5.61 0 5.28"/>
      <polygon class="cls-111" points="0 4.95 49.96 57.63 49.65 57.63 0 5.28 0 4.95"/>
      <polygon class="cls-87" points="0 4.62 50.28 57.63 49.96 57.63 0 4.95 0 4.62"/>
      <polygon class="cls-67" points="0 4.29 50.59 57.63 50.28 57.63 0 4.62 0 4.29"/>
      <polygon class="cls-264" points="0 3.96 50.9 57.63 50.59 57.63 0 4.29 0 3.96"/>
      <polygon class="cls-224" points="0 3.63 51.22 57.63 50.9 57.63 0 3.96 0 3.63"/>
      <polygon class="cls-218" points="0 3.3 51.53 57.63 51.22 57.63 0 3.63 0 3.3"/>
      <polygon class="cls-110" points="0 2.97 51.84 57.63 51.53 57.63 0 3.3 0 2.97"/>
      <polygon class="cls-191" points="0 2.64 52.16 57.63 51.84 57.63 0 2.97 0 2.64"/>
      <polygon class="cls-216" points="0 2.31 52.47 57.63 52.16 57.63 0 2.64 0 2.31"/>
      <polygon class="cls-35" points="0 1.98 52.78 57.63 52.47 57.63 0 2.31 0 1.98"/>
      <polygon class="cls-4" points="0 1.73 .04 1.69 53.1 57.63 52.78 57.63 0 1.98 0 1.73"/>
      <polygon class="cls-251" points=".04 1.69 .21 1.54 53.41 57.63 53.1 57.63 .04 1.69"/>
      <polygon class="cls-165" points=".21 1.54 .37 1.38 53.72 57.63 53.41 57.63 .21 1.54"/>
      <polygon class="cls-257" points=".37 1.38 .54 1.22 54.04 57.63 53.72 57.63 .37 1.38"/>
      <polygon class="cls-235" points=".54 1.22 .7 1.07 54.35 57.63 54.04 57.63 .54 1.22"/>
      <polygon class="cls-197" points=".7 1.07 .87 .91 54.66 57.63 54.35 57.63 .7 1.07"/>
      <polygon class="cls-260" points=".87 .91 1.03 .75 54.97 57.63 54.66 57.63 .87 .91"/>
      <polygon class="cls-86" points="1.03 .75 1.2 .6 55.29 57.63 54.97 57.63 1.03 .75"/>
      <polygon class="cls-5" points="1.2 .6 1.36 .44 55.6 57.63 55.29 57.63 1.2 .6"/>
      <polygon class="cls-250" points="1.36 .44 1.53 .29 55.91 57.63 55.6 57.63 1.36 .44"/>
      <polygon class="cls-97" points="1.53 .29 1.69 .13 56.22 57.63 56.22 57.63 55.91 57.63 1.53 .29"/>
      <polygon class="cls-10" points="1.69 .13 1.83 0 1.88 0 56.39 57.47 56.22 57.63 1.69 .13"/>
      <polygon class="cls-55" points="2.19 0 56.55 57.31 56.39 57.47 1.88 0 2.19 0"/>
      <polygon class="cls-177" points="2.51 0 56.72 57.16 56.55 57.31 2.19 0 2.51 0"/>
      <polygon class="cls-173" points="2.82 0 56.88 57 56.72 57.16 2.51 0 2.82 0"/>
      <polygon class="cls-217" points="3.13 0 57.05 56.84 56.88 57 2.82 0 3.13 0"/>
      <polygon class="cls-51" points="3.45 0 57.21 56.69 57.05 56.84 3.13 0 3.45 0"/>
      <polygon class="cls-242" points="3.76 0 57.38 56.53 57.21 56.69 3.45 0 3.76 0"/>
      <polygon class="cls-146" points="4.07 0 57.54 56.37 57.38 56.53 3.76 0 4.07 0"/>
      <polygon class="cls-146" points="4.41 0 57.63 56.11 57.63 56.29 57.54 56.37 4.07 0 4.41 0"/>
      <polygon class="cls-261" points="4.75 0 57.63 55.76 57.63 56.11 4.41 0 4.75 0"/>
      <polygon class="cls-184" points="5.08 0 57.63 55.4 57.63 55.76 4.75 0 5.08 0"/>
      <polygon class="cls-175" points="5.42 0 57.63 55.05 57.63 55.4 5.08 0 5.42 0"/>
      <polygon class="cls-124" points="5.76 0 57.63 54.69 57.63 55.05 5.42 0 5.76 0"/>
      <polygon class="cls-107" points="6.1 0 57.63 54.34 57.63 54.69 5.76 0 6.1 0"/>
      <polygon class="cls-81" points="6.43 0 57.63 53.98 57.63 54.34 6.1 0 6.43 0"/>
      <polygon class="cls-142" points="6.77 0 57.63 53.62 57.63 53.98 6.43 0 6.77 0"/>
      <polygon class="cls-72" points="7.11 0 57.63 53.27 57.63 53.62 6.77 0 7.11 0"/>
      <polygon class="cls-186" points="7.44 0 57.63 52.91 57.63 53.27 7.11 0 7.44 0"/>
      <polygon class="cls-149" points="7.78 0 57.63 52.56 57.63 52.91 7.44 0 7.78 0"/>
      <polygon class="cls-17" points="8.12 0 57.63 52.2 57.63 52.56 7.78 0 8.12 0"/>
      <polygon class="cls-219" points="8.46 0 57.63 51.85 57.63 52.2 8.12 0 8.46 0"/>
      <polygon class="cls-239" points="8.79 0 57.63 51.49 57.63 51.85 8.46 0 8.79 0"/>
      <polygon class="cls-143" points="9.13 0 57.63 51.14 57.63 51.49 8.79 0 9.13 0"/>
      <polygon class="cls-140" points="9.47 0 57.63 50.78 57.63 51.14 9.13 0 9.47 0"/>
      <polygon class="cls-161" points="9.81 0 57.63 50.42 57.63 50.78 9.47 0 9.81 0"/>
      <polygon class="cls-7" points="10.14 0 57.63 50.07 57.63 50.42 9.81 0 10.14 0"/>
      <polygon class="cls-34" points="10.48 0 57.63 49.71 57.63 50.07 10.14 0 10.48 0"/>
      <polygon class="cls-231" points="10.82 0 57.63 49.36 57.63 49.71 10.48 0 10.82 0"/>
      <polygon class="cls-122" points="11.15 0 57.63 49 57.63 49.36 10.82 0 11.15 0"/>
      <polygon class="cls-36" points="11.49 0 57.63 48.65 57.63 49 11.15 0 11.49 0"/>
      <polygon class="cls-248" points="11.83 0 57.63 48.29 57.63 48.65 11.49 0 11.83 0"/>
      <polygon class="cls-159" points="12.17 0 57.63 47.94 57.63 48.29 11.83 0 12.17 0"/>
      <polygon class="cls-220" points="12.5 0 57.63 47.58 57.63 47.94 12.17 0 12.5 0"/>
      <polygon class="cls-100" points="12.84 0 57.63 47.23 57.63 47.58 12.5 0 12.84 0"/>
      <polygon class="cls-199" points="13.18 0 57.63 46.87 57.63 47.23 12.84 0 13.18 0"/>
      <polygon class="cls-15" points="13.51 0 57.63 46.51 57.63 46.87 13.18 0 13.51 0"/>
      <polygon class="cls-26" points="13.85 0 57.63 46.16 57.63 46.51 13.51 0 13.85 0"/>
      <polygon class="cls-183" points="14.19 0 57.63 45.8 57.63 46.16 13.85 0 14.19 0"/>
      <polygon class="cls-136" points="14.53 0 57.63 45.45 57.63 45.8 14.19 0 14.53 0"/>
      <polygon class="cls-155" points="14.86 0 57.63 45.09 57.63 45.45 14.53 0 14.86 0"/>
      <polygon class="cls-228" points="15.2 0 57.63 44.74 57.63 45.09 14.86 0 15.2 0"/>
      <polygon class="cls-1" points="15.54 0 57.63 44.38 57.63 44.74 15.2 0 15.54 0"/>
      <polygon class="cls-2" points="15.87 0 57.63 44.03 57.63 44.38 15.54 0 15.87 0"/>
      <polygon class="cls-181" points="16.21 0 57.63 43.67 57.63 44.03 15.87 0 16.21 0"/>
      <polygon class="cls-209" points="16.55 0 57.63 43.31 57.63 43.67 16.21 0 16.55 0"/>
      <polygon class="cls-258" points="16.89 0 57.63 42.96 57.63 43.31 16.55 0 16.89 0"/>
      <polygon class="cls-135" points="17.22 0 57.63 42.6 57.63 42.96 16.89 0 17.22 0"/>
      <polygon class="cls-75" points="17.56 0 57.63 42.25 57.63 42.6 17.22 0 17.56 0"/>
      <polygon class="cls-25" points="17.9 0 57.63 41.89 57.63 42.25 17.56 0 17.9 0"/>
      <polygon class="cls-63" points="18.24 0 57.63 41.54 57.63 41.89 17.9 0 18.24 0"/>
      <polygon class="cls-70" points="18.57 0 57.63 41.18 57.63 41.54 18.24 0 18.57 0"/>
      <polygon class="cls-232" points="18.91 0 57.63 40.83 57.63 41.18 18.57 0 18.91 0"/>
      <polygon class="cls-79" points="19.25 0 57.63 40.47 57.63 40.83 18.91 0 19.25 0"/>
      <polygon class="cls-73" points="19.58 0 57.63 40.11 57.63 40.47 19.25 0 19.58 0"/>
      <polygon class="cls-16" points="19.92 0 57.63 39.76 57.63 40.11 19.58 0 19.92 0"/>
      <polygon class="cls-267" points="20.26 0 57.63 39.4 57.63 39.76 19.92 0 20.26 0"/>
      <polygon class="cls-37" points="20.6 0 57.63 39.05 57.63 39.4 20.26 0 20.6 0"/>
      <polygon class="cls-225" points="20.93 0 57.63 38.69 57.63 39.05 20.6 0 20.93 0"/>
      <polygon class="cls-92" points="21.27 0 57.63 38.34 57.63 38.69 20.93 0 21.27 0"/>
      <polygon class="cls-32" points="21.61 0 57.63 37.98 57.63 38.34 21.27 0 21.61 0"/>
      <polygon class="cls-270" points="21.94 0 57.63 37.63 57.63 37.98 21.61 0 21.94 0"/>
      <polygon class="cls-192" points="22.28 0 57.63 37.27 57.63 37.63 21.94 0 22.28 0"/>
      <polygon class="cls-115" points="22.62 0 57.63 36.91 57.63 37.27 22.28 0 22.62 0"/>
      <polygon class="cls-156" points="22.96 0 57.63 36.56 57.63 36.91 22.62 0 22.96 0"/>
      <polygon class="cls-154" points="23.29 0 57.63 36.2 57.63 36.56 22.96 0 23.29 0"/>
      <polygon class="cls-82" points="23.63 0 57.63 35.85 57.63 36.2 23.29 0 23.63 0"/>
      <polygon class="cls-188" points="23.97 0 57.63 35.49 57.63 35.85 23.63 0 23.97 0"/>
      <polygon class="cls-126" points="24.3 0 57.63 35.14 57.63 35.49 23.97 0 24.3 0"/>
      <polygon class="cls-132" points="24.64 0 57.63 34.78 57.63 35.14 24.3 0 24.64 0"/>
      <polygon class="cls-226" points="24.98 0 57.63 34.43 57.63 34.78 24.64 0 24.98 0"/>
      <polygon class="cls-6" points="25.32 0 57.63 34.07 57.63 34.43 24.98 0 25.32 0"/>
      <polygon class="cls-123" points="25.65 0 57.63 33.72 57.63 34.07 25.32 0 25.65 0"/>
      <polygon class="cls-244" points="25.99 0 57.63 33.36 57.63 33.72 25.65 0 25.99 0"/>
      <polygon class="cls-190" points="26.33 0 57.63 33 57.63 33.36 25.99 0 26.33 0"/>
      <polygon class="cls-151" points="26.67 0 57.63 32.65 57.63 33 26.33 0 26.67 0"/>
      <polygon class="cls-158" points="27 0 57.63 32.29 57.63 32.65 26.67 0 27 0"/>
      <polygon class="cls-28" points="27.34 0 57.63 31.94 57.63 32.29 27 0 27.34 0"/>
      <polygon class="cls-83" points="27.68 0 57.63 31.58 57.63 31.94 27.34 0 27.68 0"/>
      <polygon class="cls-196" points="28.01 0 57.63 31.23 57.63 31.58 27.68 0 28.01 0"/>
      <polygon class="cls-38" points="28.35 0 57.63 30.87 57.63 31.23 28.01 0 28.35 0"/>
      <polygon class="cls-249" points="28.69 0 57.63 30.52 57.63 30.87 28.35 0 28.69 0"/>
      <polygon class="cls-227" points="29.03 0 57.63 30.16 57.63 30.52 28.69 0 29.03 0"/>
      <polygon class="cls-62" points="29.36 0 57.63 29.8 57.63 30.16 29.03 0 29.36 0"/>
      <polygon class="cls-80" points="29.7 0 57.63 29.45 57.63 29.8 29.36 0 29.7 0"/>
      <polygon class="cls-23" points="30.04 0 57.63 29.09 57.63 29.45 29.7 0 30.04 0"/>
      <polygon class="cls-229" points="30.37 0 57.63 28.74 57.63 29.09 30.04 0 30.37 0"/>
      <polygon class="cls-127" points="30.71 0 57.63 28.38 57.63 28.74 30.37 0 30.71 0"/>
      <polygon class="cls-127" points="57.63 28.38 30.71 0 57.63 0 57.63 28.38"/>
    </g>
  </g>
  <g class="cls-276">
    <g class="cls-275">
      <polygon class="cls-263" points="0 57.44 .18 57.63 0 57.63 0 57.44"/>
      <polygon class="cls-189" points="0 57.11 .49 57.63 .18 57.63 0 57.44 0 57.11"/>
      <polygon class="cls-117" points="0 56.78 .81 57.63 .49 57.63 0 57.11 0 56.78"/>
      <polygon class="cls-172" points="0 56.45 1.12 57.63 .81 57.63 0 56.78 0 56.45"/>
      <polygon class="cls-91" points="0 56.12 1.43 57.63 1.12 57.63 0 56.45 0 56.12"/>
      <polygon class="cls-246" points="0 55.79 1.75 57.63 1.43 57.63 0 56.12 0 55.79"/>
      <polygon class="cls-163" points="0 55.46 2.06 57.63 1.75 57.63 0 55.79 0 55.46"/>
      <polygon class="cls-57" points="0 55.13 2.37 57.63 2.06 57.63 0 55.46 0 55.13"/>
      <polygon class="cls-150" points="0 54.8 2.68 57.63 2.37 57.63 0 55.13 0 54.8"/>
      <polygon class="cls-134" points="0 54.47 3 57.63 2.68 57.63 0 54.8 0 54.47"/>
      <polygon class="cls-101" points="0 54.14 3.31 57.63 3 57.63 0 54.47 0 54.14"/>
      <polygon class="cls-202" points="0 53.81 3.62 57.63 3.31 57.63 0 54.14 0 53.81"/>
      <polygon class="cls-187" points="0 53.48 3.94 57.63 3.62 57.63 0 53.81 0 53.48"/>
      <polygon class="cls-148" points="0 53.15 4.25 57.63 3.94 57.63 0 53.48 0 53.15"/>
      <polygon class="cls-114" points="0 52.82 4.56 57.63 4.25 57.63 0 53.15 0 52.82"/>
      <polygon class="cls-85" points="0 52.49 4.88 57.63 4.56 57.63 0 52.82 0 52.49"/>
      <polygon class="cls-3" points="0 52.16 5.19 57.63 4.88 57.63 0 52.49 0 52.16"/>
      <polygon class="cls-206" points="0 51.83 5.5 57.63 5.19 57.63 0 52.16 0 51.83"/>
      <polygon class="cls-207" points="0 51.5 5.82 57.63 5.5 57.63 0 51.83 0 51.5"/>
      <polygon class="cls-13" points="0 51.17 6.13 57.63 5.82 57.63 0 51.5 0 51.17"/>
      <polygon class="cls-166" points="0 50.84 6.44 57.63 6.13 57.63 0 51.17 0 50.84"/>
      <polygon class="cls-18" points="0 50.51 6.76 57.63 6.44 57.63 0 50.84 0 50.51"/>
      <polygon class="cls-88" points="0 50.18 7.07 57.63 6.76 57.63 0 50.51 0 50.18"/>
      <polygon class="cls-131" points="0 49.85 7.38 57.63 7.07 57.63 0 50.18 0 49.85"/>
      <polygon class="cls-58" points="0 49.52 7.69 57.63 7.38 57.63 0 49.85 0 49.52"/>
      <polygon class="cls-56" points="0 49.19 8.01 57.63 7.69 57.63 0 49.52 0 49.19"/>
      <polygon class="cls-53" points="0 48.86 8.32 57.63 8.01 57.63 0 49.19 0 48.86"/>
      <polygon class="cls-60" points="0 48.53 8.63 57.63 8.32 57.63 0 48.86 0 48.53"/>
      <polygon class="cls-223" points="0 48.2 8.95 57.63 8.63 57.63 0 48.53 0 48.2"/>
      <polygon class="cls-24" points="0 47.87 9.26 57.63 8.95 57.63 0 48.2 0 47.87"/>
      <polygon class="cls-145" points="0 47.54 9.57 57.63 9.26 57.63 0 47.87 0 47.54"/>
      <polygon class="cls-98" points="0 47.21 9.89 57.63 9.57 57.63 0 47.54 0 47.21"/>
      <polygon class="cls-19" points="0 46.88 10.2 57.63 9.89 57.63 0 47.21 0 46.88"/>
      <polygon class="cls-240" points="0 46.55 10.51 57.63 10.2 57.63 0 46.88 0 46.55"/>
      <polygon class="cls-180" points="0 46.22 10.83 57.63 10.51 57.63 0 46.55 0 46.22"/>
      <polygon class="cls-139" points="0 45.89 11.14 57.63 10.83 57.63 0 46.22 0 45.89"/>
      <polygon class="cls-234" points="0 45.56 11.45 57.63 11.14 57.63 0 45.89 0 45.56"/>
      <polygon class="cls-236" points="0 45.23 11.77 57.63 11.45 57.63 0 45.56 0 45.23"/>
      <polygon class="cls-247" points="0 44.9 12.08 57.63 11.77 57.63 0 45.23 0 44.9"/>
      <polygon class="cls-259" points="0 44.57 12.39 57.63 12.08 57.63 0 44.9 0 44.57"/>
      <polygon class="cls-157" points="0 44.24 12.7 57.63 12.39 57.63 0 44.57 0 44.24"/>
      <polygon class="cls-128" points="0 43.91 13.02 57.63 12.7 57.63 0 44.24 0 43.91"/>
      <polygon class="cls-238" points="0 43.58 13.33 57.63 13.02 57.63 0 43.91 0 43.58"/>
      <polygon class="cls-20" points="0 43.25 13.64 57.63 13.33 57.63 0 43.58 0 43.25"/>
      <polygon class="cls-200" points="0 42.92 13.96 57.63 13.64 57.63 0 43.25 0 42.92"/>
      <polygon class="cls-212" points="0 42.58 14.27 57.63 13.96 57.63 0 42.92 0 42.58"/>
      <polygon class="cls-208" points="0 42.25 14.58 57.63 14.27 57.63 0 42.58 0 42.25"/>
      <polygon class="cls-77" points="0 41.92 14.9 57.63 14.58 57.63 0 42.25 0 41.92"/>
      <polygon class="cls-253" points="0 41.59 15.21 57.63 14.9 57.63 0 41.92 0 41.59"/>
      <polygon class="cls-221" points="0 41.26 15.52 57.63 15.21 57.63 0 41.59 0 41.26"/>
      <polygon class="cls-272" points="0 40.93 15.84 57.63 15.52 57.63 0 41.26 0 40.93"/>
      <polygon class="cls-93" points="0 40.6 16.15 57.63 15.84 57.63 0 40.93 0 40.6"/>
      <polygon class="cls-170" points="0 40.27 16.46 57.63 16.15 57.63 0 40.6 0 40.27"/>
      <polygon class="cls-11" points="0 39.94 16.77 57.63 16.46 57.63 0 40.27 0 39.94"/>
      <polygon class="cls-47" points="0 39.61 17.09 57.63 16.77 57.63 0 39.94 0 39.61"/>
      <polygon class="cls-71" points="0 39.28 17.4 57.63 17.09 57.63 0 39.61 0 39.28"/>
      <polygon class="cls-45" points="0 38.95 17.71 57.63 17.4 57.63 0 39.28 0 38.95"/>
      <polygon class="cls-50" points="0 38.62 18.03 57.63 17.71 57.63 0 38.95 0 38.62"/>
      <polygon class="cls-241" points="0 38.29 18.34 57.63 18.03 57.63 0 38.62 0 38.29"/>
      <polygon class="cls-164" points="0 37.96 18.65 57.63 18.34 57.63 0 38.29 0 37.96"/>
      <polygon class="cls-43" points="0 37.63 18.97 57.63 18.65 57.63 0 37.96 0 37.63"/>
      <polygon class="cls-116" points="0 37.3 19.28 57.63 18.97 57.63 0 37.63 0 37.3"/>
      <polygon class="cls-96" points="0 36.97 19.59 57.63 19.28 57.63 0 37.3 0 36.97"/>
      <polygon class="cls-130" points="0 36.64 19.91 57.63 19.59 57.63 0 36.97 0 36.64"/>
      <polygon class="cls-30" points="0 36.31 20.22 57.63 19.91 57.63 0 36.64 0 36.31"/>
      <polygon class="cls-8" points="0 35.98 20.53 57.63 20.22 57.63 0 36.31 0 35.98"/>
      <polygon class="cls-104" points="0 35.65 20.85 57.63 20.53 57.63 0 35.98 0 35.65"/>
      <polygon class="cls-271" points="0 35.32 21.16 57.63 20.85 57.63 0 35.65 0 35.32"/>
      <polygon class="cls-137" points="0 34.99 21.47 57.63 21.16 57.63 0 35.32 0 34.99"/>
      <polygon class="cls-119" points="0 34.66 21.78 57.63 21.47 57.63 0 34.99 0 34.66"/>
      <polygon class="cls-133" points="0 34.33 22.1 57.63 21.78 57.63 0 34.66 0 34.33"/>
      <polygon class="cls-268" points="0 34 22.41 57.63 22.1 57.63 0 34.33 0 34"/>
      <polygon class="cls-222" points="0 33.67 22.72 57.63 22.41 57.63 0 34 0 33.67"/>
      <polygon class="cls-99" points="0 33.34 23.04 57.63 22.72 57.63 0 33.67 0 33.34"/>
      <polygon class="cls-89" points="0 33.01 23.35 57.63 23.04 57.63 0 33.34 0 33.01"/>
      <polygon class="cls-102" points="0 32.68 23.66 57.63 23.35 57.63 0 33.01 0 32.68"/>
      <polygon class="cls-213" points="0 32.35 23.98 57.63 23.66 57.63 0 32.68 0 32.35"/>
      <polygon class="cls-243" points="0 32.02 24.29 57.63 23.98 57.63 0 32.35 0 32.02"/>
      <polygon class="cls-171" points="0 31.69 24.6 57.63 24.29 57.63 0 32.02 0 31.69"/>
      <polygon class="cls-64" points="0 31.36 24.92 57.63 24.6 57.63 0 31.69 0 31.36"/>
      <polygon class="cls-118" points="0 31.03 25.23 57.63 24.92 57.63 0 31.36 0 31.03"/>
      <polygon class="cls-46" points="0 30.7 25.54 57.63 25.23 57.63 0 31.03 0 30.7"/>
      <polygon class="cls-69" points="0 30.37 25.86 57.63 25.54 57.63 0 30.7 0 30.37"/>
      <polygon class="cls-193" points="0 30.04 26.17 57.63 25.86 57.63 0 30.37 0 30.04"/>
      <polygon class="cls-112" points="0 29.71 26.48 57.63 26.17 57.63 0 30.04 0 29.71"/>
      <polygon class="cls-31" points="0 29.38 26.79 57.63 26.48 57.63 0 29.71 0 29.38"/>
      <polygon class="cls-169" points="0 29.05 27.11 57.63 26.79 57.63 0 29.38 0 29.05"/>
      <polygon class="cls-22" points="0 28.72 27.42 57.63 27.11 57.63 0 29.05 0 28.72"/>
      <polygon class="cls-254" points="0 28.39 27.73 57.63 27.42 57.63 0 28.72 0 28.39"/>
      <polygon class="cls-105" points="0 28.06 28.05 57.63 27.73 57.63 0 28.39 0 28.06"/>
      <polygon class="cls-44" points="0 27.73 28.36 57.63 28.05 57.63 0 28.06 0 27.73"/>
      <polygon class="cls-153" points="0 27.4 28.67 57.63 28.36 57.63 0 27.73 0 27.4"/>
      <polygon class="cls-201" points="0 27.07 28.99 57.63 28.67 57.63 0 27.4 0 27.07"/>
      <polygon class="cls-14" points="0 26.74 29.3 57.63 28.99 57.63 0 27.07 0 26.74"/>
      <polygon class="cls-262" points="0 26.41 29.61 57.63 29.3 57.63 0 26.74 0 26.41"/>
      <polygon class="cls-269" points="0 26.08 29.93 57.63 29.61 57.63 0 26.41 0 26.08"/>
      <polygon class="cls-120" points="0 25.75 30.24 57.63 29.93 57.63 0 26.08 0 25.75"/>
      <polygon class="cls-214" points="0 25.42 30.55 57.63 30.24 57.63 0 25.75 0 25.42"/>
      <polygon class="cls-121" points="0 25.09 30.86 57.63 30.55 57.63 0 25.42 0 25.09"/>
      <polygon class="cls-179" points="0 24.76 31.18 57.63 30.86 57.63 0 25.09 0 24.76"/>
      <polygon class="cls-94" points="0 24.43 31.49 57.63 31.18 57.63 0 24.76 0 24.43"/>
      <polygon class="cls-27" points="0 24.1 31.8 57.63 31.49 57.63 0 24.43 0 24.1"/>
      <polygon class="cls-147" points="0 23.77 32.12 57.63 31.8 57.63 0 24.1 0 23.77"/>
      <polygon class="cls-182" points="0 23.44 32.43 57.63 32.12 57.63 0 23.77 0 23.44"/>
      <polygon class="cls-78" points="0 23.11 32.74 57.63 32.43 57.63 0 23.44 0 23.11"/>
      <polygon class="cls-48" points="0 22.78 33.06 57.63 32.74 57.63 0 23.11 0 22.78"/>
      <polygon class="cls-230" points="0 22.45 33.37 57.63 33.06 57.63 0 22.78 0 22.45"/>
      <polygon class="cls-49" points="0 22.12 33.68 57.63 33.37 57.63 0 22.45 0 22.12"/>
      <polygon class="cls-195" points="0 21.79 34 57.63 33.68 57.63 0 22.12 0 21.79"/>
      <polygon class="cls-211" points="0 21.46 34.31 57.63 34 57.63 0 21.79 0 21.46"/>
      <polygon class="cls-237" points="0 21.13 34.62 57.63 34.31 57.63 0 21.46 0 21.13"/>
      <polygon class="cls-204" points="0 20.8 34.94 57.63 34.62 57.63 0 21.13 0 20.8"/>
      <polygon class="cls-12" points="0 20.47 35.25 57.63 34.94 57.63 0 20.8 0 20.47"/>
      <polygon class="cls-129" points="0 20.14 35.56 57.63 35.25 57.63 0 20.47 0 20.14"/>
      <polygon class="cls-233" points="0 19.81 35.87 57.63 35.56 57.63 0 20.14 0 19.81"/>
      <polygon class="cls-39" points="0 19.48 36.19 57.63 35.87 57.63 0 19.81 0 19.48"/>
      <polygon class="cls-144" points="0 19.15 36.5 57.63 36.19 57.63 0 19.48 0 19.15"/>
      <polygon class="cls-74" points="0 18.82 36.81 57.63 36.5 57.63 0 19.15 0 18.82"/>
      <polygon class="cls-198" points="0 18.49 37.13 57.63 36.81 57.63 0 18.82 0 18.49"/>
      <polygon class="cls-103" points="0 18.16 37.44 57.63 37.13 57.63 0 18.49 0 18.16"/>
      <polygon class="cls-176" points="0 17.83 37.75 57.63 37.44 57.63 0 18.16 0 17.83"/>
      <polygon class="cls-203" points="0 17.5 38.07 57.63 37.75 57.63 0 17.83 0 17.5"/>
      <polygon class="cls-160" points="0 17.16 38.38 57.63 38.07 57.63 0 17.5 0 17.16"/>
      <polygon class="cls-41" points="0 16.83 38.69 57.63 38.38 57.63 0 17.16 0 16.83"/>
      <polygon class="cls-252" points="0 16.5 39.01 57.63 38.69 57.63 0 16.83 0 16.5"/>
      <polygon class="cls-109" points="0 16.17 39.32 57.63 39.01 57.63 0 16.5 0 16.17"/>
      <polygon class="cls-9" points="0 15.84 39.63 57.63 39.32 57.63 0 16.17 0 15.84"/>
      <polygon class="cls-162" points="0 15.51 39.95 57.63 39.63 57.63 0 15.84 0 15.51"/>
      <polygon class="cls-185" points="0 15.18 40.26 57.63 39.95 57.63 0 15.51 0 15.18"/>
      <polygon class="cls-84" points="0 14.85 40.57 57.63 40.26 57.63 0 15.18 0 14.85"/>
      <polygon class="cls-21" points="0 14.52 40.88 57.63 40.57 57.63 0 14.85 0 14.52"/>
      <polygon class="cls-194" points="0 14.19 41.2 57.63 40.88 57.63 0 14.52 0 14.19"/>
      <polygon class="cls-266" points="0 13.86 41.51 57.63 41.2 57.63 0 14.19 0 13.86"/>
      <polygon class="cls-33" points="0 13.53 41.82 57.63 41.51 57.63 0 13.86 0 13.53"/>
      <polygon class="cls-265" points="0 13.2 42.14 57.63 41.82 57.63 0 13.53 0 13.2"/>
      <polygon class="cls-59" points="0 12.87 42.45 57.63 42.14 57.63 0 13.2 0 12.87"/>
      <polygon class="cls-138" points="0 12.54 42.76 57.63 42.45 57.63 0 12.87 0 12.54"/>
      <polygon class="cls-205" points="0 12.21 43.08 57.63 42.76 57.63 0 12.54 0 12.21"/>
      <polygon class="cls-108" points="0 11.88 43.39 57.63 43.08 57.63 0 12.21 0 11.88"/>
      <polygon class="cls-210" points="0 11.55 43.7 57.63 43.39 57.63 0 11.88 0 11.55"/>
      <polygon class="cls-178" points="0 11.22 44.02 57.63 43.7 57.63 0 11.55 0 11.22"/>
      <polygon class="cls-215" points="0 10.89 44.33 57.63 44.02 57.63 0 11.22 0 10.89"/>
      <polygon class="cls-106" points="0 10.56 44.64 57.63 44.33 57.63 0 10.89 0 10.56"/>
      <polygon class="cls-54" points="0 10.23 44.95 57.63 44.64 57.63 0 10.56 0 10.23"/>
      <polygon class="cls-76" points="0 9.9 45.27 57.63 44.95 57.63 0 10.23 0 9.9"/>
      <polygon class="cls-68" points="0 9.57 45.58 57.63 45.27 57.63 0 9.9 0 9.57"/>
      <polygon class="cls-29" points="0 9.24 45.89 57.63 45.58 57.63 0 9.57 0 9.24"/>
      <polygon class="cls-95" points="0 8.91 46.21 57.63 45.89 57.63 0 9.24 0 8.91"/>
      <polygon class="cls-152" points="0 8.58 46.52 57.63 46.21 57.63 0 8.91 0 8.58"/>
      <polygon class="cls-65" points="0 8.25 46.83 57.63 46.52 57.63 0 8.58 0 8.25"/>
      <polygon class="cls-66" points="0 7.92 47.15 57.63 46.83 57.63 0 8.25 0 7.92"/>
      <polygon class="cls-113" points="0 7.59 47.46 57.63 47.15 57.63 0 7.92 0 7.59"/>
      <polygon class="cls-174" points="0 7.26 47.77 57.63 47.46 57.63 0 7.59 0 7.26"/>
      <polygon class="cls-167" points="0 6.93 48.09 57.63 47.77 57.63 0 7.26 0 6.93"/>
      <polygon class="cls-90" points="0 6.6 48.4 57.63 48.09 57.63 0 6.93 0 6.6"/>
      <polygon class="cls-125" points="0 6.27 48.71 57.63 48.4 57.63 0 6.6 0 6.27"/>
      <polygon class="cls-40" points="0 5.94 49.03 57.63 48.71 57.63 0 6.27 0 5.94"/>
      <polygon class="cls-256" points="0 5.61 49.34 57.63 49.03 57.63 0 5.94 0 5.61"/>
      <polygon class="cls-255" points="0 5.28 49.65 57.63 49.34 57.63 0 5.61 0 5.28"/>
      <polygon class="cls-111" points="0 4.95 49.96 57.63 49.65 57.63 0 5.28 0 4.95"/>
      <polygon class="cls-87" points="0 4.62 50.28 57.63 49.96 57.63 0 4.95 0 4.62"/>
      <polygon class="cls-67" points="0 4.29 50.59 57.63 50.28 57.63 0 4.62 0 4.29"/>
      <polygon class="cls-264" points="0 3.96 50.9 57.63 50.59 57.63 0 4.29 0 3.96"/>
      <polygon class="cls-224" points="0 3.63 51.22 57.63 50.9 57.63 0 3.96 0 3.63"/>
      <polygon class="cls-218" points="0 3.3 51.53 57.63 51.22 57.63 0 3.63 0 3.3"/>
      <polygon class="cls-110" points="0 2.97 51.84 57.63 51.53 57.63 0 3.3 0 2.97"/>
      <polygon class="cls-191" points="0 2.64 52.16 57.63 51.84 57.63 0 2.97 0 2.64"/>
      <polygon class="cls-216" points="0 2.31 52.47 57.63 52.16 57.63 0 2.64 0 2.31"/>
      <polygon class="cls-35" points="0 1.98 52.78 57.63 52.47 57.63 0 2.31 0 1.98"/>
      <polygon class="cls-4" points="0 1.73 .04 1.69 53.1 57.63 52.78 57.63 0 1.98 0 1.73"/>
      <polygon class="cls-251" points=".04 1.69 .21 1.54 53.41 57.63 53.1 57.63 .04 1.69"/>
      <polygon class="cls-165" points=".21 1.54 .37 1.38 53.72 57.63 53.41 57.63 .21 1.54"/>
      <polygon class="cls-257" points=".37 1.38 .54 1.22 54.04 57.63 53.72 57.63 .37 1.38"/>
      <polygon class="cls-235" points=".54 1.22 .7 1.07 54.35 57.63 54.04 57.63 .54 1.22"/>
      <polygon class="cls-197" points=".7 1.07 .87 .91 54.66 57.63 54.35 57.63 .7 1.07"/>
      <polygon class="cls-260" points=".87 .91 1.03 .75 54.97 57.63 54.66 57.63 .87 .91"/>
      <polygon class="cls-86" points="1.03 .75 1.2 .6 55.29 57.63 54.97 57.63 1.03 .75"/>
      <polygon class="cls-5" points="1.2 .6 1.36 .44 55.6 57.63 55.29 57.63 1.2 .6"/>
      <polygon class="cls-250" points="1.36 .44 1.53 .29 55.91 57.63 55.6 57.63 1.36 .44"/>
      <polygon class="cls-97" points="1.53 .29 1.69 .13 56.22 57.63 56.22 57.63 55.91 57.63 1.53 .29"/>
      <polygon class="cls-10" points="1.69 .13 1.83 0 1.88 0 56.39 57.47 56.22 57.63 1.69 .13"/>
      <polygon class="cls-55" points="2.19 0 56.55 57.31 56.39 57.47 1.88 0 2.19 0"/>
      <polygon class="cls-177" points="2.51 0 56.72 57.16 56.55 57.31 2.19 0 2.51 0"/>
      <polygon class="cls-173" points="2.82 0 56.88 57 56.72 57.16 2.51 0 2.82 0"/>
      <polygon class="cls-217" points="3.13 0 57.05 56.84 56.88 57 2.82 0 3.13 0"/>
      <polygon class="cls-51" points="3.45 0 57.21 56.69 57.05 56.84 3.13 0 3.45 0"/>
      <polygon class="cls-242" points="3.76 0 57.38 56.53 57.21 56.69 3.45 0 3.76 0"/>
      <polygon class="cls-146" points="4.07 0 57.54 56.37 57.38 56.53 3.76 0 4.07 0"/>
      <polygon class="cls-146" points="4.41 0 57.63 56.11 57.63 56.29 57.54 56.37 4.07 0 4.41 0"/>
      <polygon class="cls-261" points="4.75 0 57.63 55.76 57.63 56.11 4.41 0 4.75 0"/>
      <polygon class="cls-184" points="5.08 0 57.63 55.4 57.63 55.76 4.75 0 5.08 0"/>
      <polygon class="cls-175" points="5.42 0 57.63 55.05 57.63 55.4 5.08 0 5.42 0"/>
      <polygon class="cls-124" points="5.76 0 57.63 54.69 57.63 55.05 5.42 0 5.76 0"/>
      <polygon class="cls-107" points="6.1 0 57.63 54.34 57.63 54.69 5.76 0 6.1 0"/>
      <polygon class="cls-81" points="6.43 0 57.63 53.98 57.63 54.34 6.1 0 6.43 0"/>
      <polygon class="cls-142" points="6.77 0 57.63 53.62 57.63 53.98 6.43 0 6.77 0"/>
      <polygon class="cls-72" points="7.11 0 57.63 53.27 57.63 53.62 6.77 0 7.11 0"/>
      <polygon class="cls-186" points="7.44 0 57.63 52.91 57.63 53.27 7.11 0 7.44 0"/>
      <polygon class="cls-149" points="7.78 0 57.63 52.56 57.63 52.91 7.44 0 7.78 0"/>
      <polygon class="cls-17" points="8.12 0 57.63 52.2 57.63 52.56 7.78 0 8.12 0"/>
      <polygon class="cls-219" points="8.46 0 57.63 51.85 57.63 52.2 8.12 0 8.46 0"/>
      <polygon class="cls-239" points="8.79 0 57.63 51.49 57.63 51.85 8.46 0 8.79 0"/>
      <polygon class="cls-143" points="9.13 0 57.63 51.14 57.63 51.49 8.79 0 9.13 0"/>
      <polygon class="cls-140" points="9.47 0 57.63 50.78 57.63 51.14 9.13 0 9.47 0"/>
      <polygon class="cls-161" points="9.81 0 57.63 50.42 57.63 50.78 9.47 0 9.81 0"/>
      <polygon class="cls-7" points="10.14 0 57.63 50.07 57.63 50.42 9.81 0 10.14 0"/>
      <polygon class="cls-34" points="10.48 0 57.63 49.71 57.63 50.07 10.14 0 10.48 0"/>
      <polygon class="cls-231" points="10.82 0 57.63 49.36 57.63 49.71 10.48 0 10.82 0"/>
      <polygon class="cls-122" points="11.15 0 57.63 49 57.63 49.36 10.82 0 11.15 0"/>
      <polygon class="cls-36" points="11.49 0 57.63 48.65 57.63 49 11.15 0 11.49 0"/>
      <polygon class="cls-248" points="11.83 0 57.63 48.29 57.63 48.65 11.49 0 11.83 0"/>
      <polygon class="cls-159" points="12.17 0 57.63 47.94 57.63 48.29 11.83 0 12.17 0"/>
      <polygon class="cls-220" points="12.5 0 57.63 47.58 57.63 47.94 12.17 0 12.5 0"/>
      <polygon class="cls-100" points="12.84 0 57.63 47.23 57.63 47.58 12.5 0 12.84 0"/>
      <polygon class="cls-199" points="13.18 0 57.63 46.87 57.63 47.23 12.84 0 13.18 0"/>
      <polygon class="cls-15" points="13.51 0 57.63 46.51 57.63 46.87 13.18 0 13.51 0"/>
      <polygon class="cls-26" points="13.85 0 57.63 46.16 57.63 46.51 13.51 0 13.85 0"/>
      <polygon class="cls-183" points="14.19 0 57.63 45.8 57.63 46.16 13.85 0 14.19 0"/>
      <polygon class="cls-136" points="14.53 0 57.63 45.45 57.63 45.8 14.19 0 14.53 0"/>
      <polygon class="cls-155" points="14.86 0 57.63 45.09 57.63 45.45 14.53 0 14.86 0"/>
      <polygon class="cls-228" points="15.2 0 57.63 44.74 57.63 45.09 14.86 0 15.2 0"/>
      <polygon class="cls-1" points="15.54 0 57.63 44.38 57.63 44.74 15.2 0 15.54 0"/>
      <polygon class="cls-2" points="15.87 0 57.63 44.03 57.63 44.38 15.54 0 15.87 0"/>
      <polygon class="cls-181" points="16.21 0 57.63 43.67 57.63 44.03 15.87 0 16.21 0"/>
      <polygon class="cls-209" points="16.55 0 57.63 43.31 57.63 43.67 16.21 0 16.55 0"/>
      <polygon class="cls-258" points="16.89 0 57.63 42.96 57.63 43.31 16.55 0 16.89 0"/>
      <polygon class="cls-135" points="17.22 0 57.63 42.6 57.63 42.96 16.89 0 17.22 0"/>
      <polygon class="cls-75" points="17.56 0 57.63 42.25 57.63 42.6 17.22 0 17.56 0"/>
      <polygon class="cls-25" points="17.9 0 57.63 41.89 57.63 42.25 17.56 0 17.9 0"/>
      <polygon class="cls-63" points="18.24 0 57.63 41.54 57.63 41.89 17.9 0 18.24 0"/>
      <polygon class="cls-70" points="18.57 0 57.63 41.18 57.63 41.54 18.24 0 18.57 0"/>
      <polygon class="cls-232" points="18.91 0 57.63 40.83 57.63 41.18 18.57 0 18.91 0"/>
      <polygon class="cls-79" points="19.25 0 57.63 40.47 57.63 40.83 18.91 0 19.25 0"/>
      <polygon class="cls-73" points="19.58 0 57.63 40.11 57.63 40.47 19.25 0 19.58 0"/>
      <polygon class="cls-16" points="19.92 0 57.63 39.76 57.63 40.11 19.58 0 19.92 0"/>
      <polygon class="cls-267" points="20.26 0 57.63 39.4 57.63 39.76 19.92 0 20.26 0"/>
      <polygon class="cls-37" points="20.6 0 57.63 39.05 57.63 39.4 20.26 0 20.6 0"/>
      <polygon class="cls-225" points="20.93 0 57.63 38.69 57.63 39.05 20.6 0 20.93 0"/>
      <polygon class="cls-92" points="21.27 0 57.63 38.34 57.63 38.69 20.93 0 21.27 0"/>
      <polygon class="cls-32" points="21.61 0 57.63 37.98 57.63 38.34 21.27 0 21.61 0"/>
      <polygon class="cls-270" points="21.94 0 57.63 37.63 57.63 37.98 21.61 0 21.94 0"/>
      <polygon class="cls-192" points="22.28 0 57.63 37.27 57.63 37.63 21.94 0 22.28 0"/>
      <polygon class="cls-115" points="22.62 0 57.63 36.91 57.63 37.27 22.28 0 22.62 0"/>
      <polygon class="cls-156" points="22.96 0 57.63 36.56 57.63 36.91 22.62 0 22.96 0"/>
      <polygon class="cls-154" points="23.29 0 57.63 36.2 57.63 36.56 22.96 0 23.29 0"/>
      <polygon class="cls-82" points="23.63 0 57.63 35.85 57.63 36.2 23.29 0 23.63 0"/>
      <polygon class="cls-188" points="23.97 0 57.63 35.49 57.63 35.85 23.63 0 23.97 0"/>
      <polygon class="cls-126" points="24.3 0 57.63 35.14 57.63 35.49 23.97 0 24.3 0"/>
      <polygon class="cls-132" points="24.64 0 57.63 34.78 57.63 35.14 24.3 0 24.64 0"/>
      <polygon class="cls-226" points="24.98 0 57.63 34.43 57.63 34.78 24.64 0 24.98 0"/>
      <polygon class="cls-6" points="25.32 0 57.63 34.07 57.63 34.43 24.98 0 25.32 0"/>
      <polygon class="cls-123" points="25.65 0 57.63 33.72 57.63 34.07 25.32 0 25.65 0"/>
      <polygon class="cls-244" points="25.99 0 57.63 33.36 57.63 33.72 25.65 0 25.99 0"/>
      <polygon class="cls-190" points="26.33 0 57.63 33 57.63 33.36 25.99 0 26.33 0"/>
      <polygon class="cls-151" points="26.67 0 57.63 32.65 57.63 33 26.33 0 26.67 0"/>
      <polygon class="cls-158" points="27 0 57.63 32.29 57.63 32.65 26.67 0 27 0"/>
      <polygon class="cls-28" points="27.34 0 57.63 31.94 57.63 32.29 27 0 27.34 0"/>
      <polygon class="cls-83" points="27.68 0 57.63 31.58 57.63 31.94 27.34 0 27.68 0"/>
      <polygon class="cls-196" points="28.01 0 57.63 31.23 57.63 31.58 27.68 0 28.01 0"/>
      <polygon class="cls-38" points="28.35 0 57.63 30.87 57.63 31.23 28.01 0 28.35 0"/>
      <polygon class="cls-249" points="28.69 0 57.63 30.52 57.63 30.87 28.35 0 28.69 0"/>
      <polygon class="cls-227" points="29.03 0 57.63 30.16 57.63 30.52 28.69 0 29.03 0"/>
      <polygon class="cls-62" points="29.36 0 57.63 29.8 57.63 30.16 29.03 0 29.36 0"/>
      <polygon class="cls-80" points="29.7 0 57.63 29.45 57.63 29.8 29.36 0 29.7 0"/>
      <polygon class="cls-23" points="30.04 0 57.63 29.09 57.63 29.45 29.7 0 30.04 0"/>
      <polygon class="cls-229" points="30.37 0 57.63 28.74 57.63 29.09 30.04 0 30.37 0"/>
      <polygon class="cls-127" points="30.71 0 57.63 28.38 57.63 28.74 30.37 0 30.71 0"/>
      <polygon class="cls-127" points="57.63 28.38 30.71 0 57.63 0 57.63 28.38"/>
    </g>
  </g>
</svg>