<?xml version="1.0" encoding="UTF-8"?>
<svg id="Layer_1" data-name="Layer 1" xmlns="http://www.w3.org/2000/svg" viewBox="0 0 224.32 57.63">
  <defs>
    <style>
      .cls-1 {
        fill: #ff3e5f;
      }

      .cls-1, .cls-2 {
        stroke-width: 0px;
      }

      .cls-2 {
        fill: #232323;
      }
    </style>
  </defs>
  <path class="cls-1" d="M19.05,29.14c-7.11,0-12.9,5.79-12.9,12.9v14.93c-3.6-1.4-6.15-4.9-6.15-9V9.67C0,5.57,2.55,2.06,6.15.66v3.62c0,7.12,5.79,12.9,12.9,12.9h20.72c3.3,0,5.98,2.69,5.98,5.98s-2.68,5.98-5.98,5.98h-20.72Z"/>
  <path class="cls-1" d="M57.63,9.67v38.3c0,5.34-4.33,9.66-9.67,9.66H13.07v-15.59c0-3.29,2.69-5.98,5.98-5.98h20.72c7.12,0,12.9-5.78,12.9-12.9s-5.78-12.9-12.9-12.9h-20.72c-3.29,0-5.98-2.68-5.98-5.98V.35c0-.12-.01-.23-.02-.35h34.91c5.34,0,9.67,4.33,9.67,9.67Z"/>
  <g>
    <path class="cls-2" d="M72.36,41.15v-24.3h10c2.15,0,4,.34,5.54,1.02,1.54.68,2.72,1.67,3.56,2.97.83,1.3,1.25,2.85,1.25,4.65s-.42,3.31-1.25,4.6c-.83,1.28-2.02,2.28-3.56,2.99-1.54.71-3.38,1.06-5.54,1.06h-7.46l1.98-2.08v9.09h-4.51ZM76.88,32.54l-1.98-2.22h7.25c1.99,0,3.49-.42,4.5-1.27,1.01-.84,1.51-2.03,1.51-3.56s-.5-2.71-1.51-3.56c-1.01-.84-2.51-1.27-4.5-1.27h-7.25l1.98-2.22v14.09Z"/>
    <path class="cls-2" d="M102.74,41.39c-1.39,0-2.6-.24-3.64-.71-1.04-.47-1.85-1.13-2.41-1.98-.57-.84-.85-1.8-.85-2.86s.25-1.98.75-2.81c.5-.83,1.31-1.49,2.45-1.98,1.13-.49,2.64-.73,4.51-.73h5.38v2.88h-5.07c-1.46,0-2.45.24-2.97.71-.52.47-.78,1.07-.78,1.79,0,.76.31,1.38.94,1.84.62.46,1.49.69,2.6.69s2.02-.24,2.86-.73,1.46-1.2,1.86-2.15l.69,2.6c-.42,1.09-1.16,1.93-2.22,2.53-1.06.6-2.43.9-4.1.9ZM108.57,41.15v-3.78l-.21-.76v-6.56c0-1.27-.39-2.26-1.16-2.97-.78-.71-1.95-1.06-3.52-1.06-1.02,0-2.02.16-3.02.49-1,.32-1.85.78-2.57,1.35l-1.7-3.16c1.02-.76,2.21-1.34,3.58-1.74,1.37-.39,2.79-.59,4.27-.59,2.71,0,4.79.65,6.25,1.94,1.46,1.3,2.19,3.29,2.19,5.97v10.86h-4.1Z"/>
    <path class="cls-2" d="M119.78,48.12c-.93,0-1.84-.15-2.74-.45-.9-.3-1.64-.72-2.22-1.25l1.7-3.16c.44.37.93.67,1.48.9.54.23,1.12.35,1.72.35.79,0,1.42-.2,1.91-.59.49-.39.94-1.06,1.35-2.01l1.04-2.36.42-.56,6.98-16.38h4.17l-8.68,20.06c-.58,1.36-1.22,2.45-1.93,3.25-.71.8-1.49,1.37-2.36,1.7s-1.81.5-2.83.5ZM123.56,41.81l-8.36-19.19h4.48l6.84,16-2.95,3.19Z"/>
    <path class="cls-1" d="M145.01,41.15h-5.66v-24.3h18.36v4.51h-12.7v19.78ZM144.56,27.78h11.66v4.51h-11.66v-4.51Z"/>
    <path class="cls-1" d="M161.15,41.15V15.39h5.41v25.75h-5.41Z"/>
    <path class="cls-1" d="M180.45,41.43c-1.97,0-3.72-.42-5.26-1.25s-2.75-1.97-3.63-3.42c-.88-1.45-1.32-3.09-1.32-4.95s.44-3.53,1.32-4.98c.88-1.45,2.09-2.58,3.63-3.4,1.54-.82,3.29-1.23,5.26-1.23s3.76.41,5.31,1.23c1.55.82,2.76,1.96,3.64,3.4.88,1.45,1.32,3.11,1.32,4.98s-.44,3.53-1.32,4.96c-.88,1.44-2.09,2.57-3.64,3.4-1.55.83-3.32,1.25-5.31,1.25ZM180.45,36.98c.93,0,1.74-.2,2.45-.61.71-.4,1.27-1,1.7-1.79.43-.79.64-1.71.64-2.78s-.21-2.01-.64-2.78c-.43-.76-1-1.35-1.7-1.75-.71-.4-1.51-.61-2.41-.61s-1.71.2-2.43.61c-.72.41-1.29.99-1.72,1.75s-.64,1.69-.64,2.78.21,1.99.64,2.78c.43.79,1,1.38,1.72,1.79.72.4,1.52.61,2.4.61Z"/>
    <path class="cls-1" d="M198.6,41.15l-6.73-18.67h5.1l5.59,16.07h-2.46l5.83-16.07h4.62l5.62,16.07h-2.36l5.73-16.07h4.79l-6.77,18.67h-5.21l-5-13.78h1.56l-5.07,13.78h-5.24Z"/>
  </g>
</svg>